<?xml version="1.0" encoding="UTF-8" standalone="no"?>
<!-- Created with Inkscape (http://www.inkscape.org/) -->

<svg
   xmlns:dc="http://purl.org/dc/elements/1.1/"
   xmlns:cc="http://creativecommons.org/ns#"
   xmlns:rdf="http://www.w3.org/1999/02/22-rdf-syntax-ns#"
   xmlns:svg="http://www.w3.org/2000/svg"
   xmlns="http://www.w3.org/2000/svg"
   xmlns:sodipodi="http://sodipodi.sourceforge.net/DTD/sodipodi-0.dtd"
   xmlns:inkscape="http://www.inkscape.org/namespaces/inkscape"
   width="15"
   height="15"
   viewBox="0 0 15 15"
   id="svg5787"
   version="1.1"
   inkscape:version="0.91 r13725"
   sodipodi:docname="searchIcon.svg">
  <defs
     id="defs5789" />
  <sodipodi:namedview
     id="base"
     pagecolor="#ffffff"
     bordercolor="#666666"
     borderopacity="1.0"
     inkscape:pageopacity="0.0"
     inkscape:pageshadow="2"
     inkscape:zoom="3.959798"
     inkscape:cx="-26.889627"
     inkscape:cy="3.984655"
     inkscape:document-units="px"
     inkscape:current-layer="layer1"
     showgrid="false"
     units="px"
     inkscape:window-width="1366"
     inkscape:window-height="705"
     inkscape:window-x="-8"
     inkscape:window-y="-8"
     inkscape:window-maximized="1" />
  <metadata
     id="metadata5792">
    <rdf:RDF>
      <cc:Work
         rdf:about="">
        <dc:format>image/svg+xml</dc:format>
        <dc:type
           rdf:resource="http://purl.org/dc/dcmitype/StillImage" />
        <dc:title></dc:title>
      </cc:Work>
    </rdf:RDF>
  </metadata>
  <g
     inkscape:label="Layer 1"
     inkscape:groupmode="layer"
     id="layer1"
     transform="translate(0,-1037.3622)">
    <g
       style="fill:#ff0066;fill-opacity:1"
       id="uploadIcon "
       transform="matrix(0.66664445,0,0,0.66664445,1301.9801,-186.79184)">
      <path
         id="path5781"
         d="m -2032.4336,1849.3594 c -2.6041,0.011 -4.6992,2.1081 -4.6992,4.7148 0,2.6135 2.1053,4.7188 4.7187,4.7188 l 20.5645,0 c 2.6134,0 4.7168,-2.1053 4.7168,-4.7188 0,-2.6067 -2.0931,-4.7041 -4.6973,-4.7148 -0.104,2.52 -2.1527,4.5215 -4.6992,4.5215 l -11.2051,0 c -2.5465,0 -4.5952,-2.0015 -4.6992,-4.5215 z"
         style="opacity:1;fill:#ff0066;fill-opacity:1;stroke:none;stroke-width:1;stroke-miterlimit:4;stroke-dasharray:none;stroke-dashoffset:0;stroke-opacity:1"
         inkscape:connector-curvature="0" />
      <path
         inkscape:connector-curvature="0"
         id="path5783"
         d="m -2022.1323,1828.792 -7.5712,7.5713 15.1431,0 -7.5719,-7.5713 z"
         style="opacity:1;fill:#ff0066;fill-opacity:1;stroke:none;stroke-width:1;stroke-miterlimit:4;stroke-dasharray:none;stroke-dashoffset:0;stroke-opacity:1" />
      <rect
         y="1835.0984"
         x="-2025.9004"
         height="16.728273"
         width="7.5369148"
         id="rect5785"
         style="opacity:1;fill:#ff0066;fill-opacity:1;stroke:none;stroke-width:1;stroke-miterlimit:4;stroke-dasharray:none;stroke-dashoffset:0;stroke-opacity:1" />
    </g>
    <path
       inkscape:connector-curvature="0"
       style="opacity:1;fill:#626e7f;fill-opacity:1;stroke:none;stroke-width:1;stroke-miterlimit:4;stroke-dasharray:none;stroke-dashoffset:0;stroke-opacity:1"
       d="m 6.2444436,1037.3628 a 6.155673,6.155673 0 0 0 -4.4414,1.8027 6.155673,6.155673 0 0 0 0,8.7051 6.155673,6.155673 0 0 0 7.7969,0.7441 l 3.5722994,3.5723 c 0.2336,0.2336 0.6101,0.2336 0.8437,0 l 0.8086,-0.8086 c 0.2336,-0.2336 0.2336,-0.6102 0,-0.8438 l -3.5722,-3.5722 a 6.155673,6.155673 0 0 0 -0.7442,-7.7969 6.155673,6.155673 0 0 0 -4.2636994,-1.8027 z m -0.031,2.1562 a 3.9989407,3.9989407 0 0 1 2.7695,1.1719 3.9989407,3.9989407 0 0 1 0,5.6543 3.9989407,3.9989407 0 0 1 -5.6562,0 3.9989407,3.9989407 0 0 1 0,-5.6543 3.9989407,3.9989407 0 0 1 2.8867,-1.1719 z"
       id="path5970" />
  </g>
</svg>
